<?xml version="1.0" standalone="no"?>
<!DOCTYPE svg PUBLIC "-//W3C//DTD SVG 20010904//EN"
 "http://www.w3.org/TR/2001/REC-SVG-20010904/DTD/svg10.dtd">
<svg version="1.0" xmlns="http://www.w3.org/2000/svg"
 width="512.000000pt" height="512.000000pt" viewBox="0 0 512.000000 512.000000"
 preserveAspectRatio="xMidYMid meet">
<metadata>
Created by potrace 1.14, written by Peter Selinger 2001-2017
</metadata>
<g transform="translate(0.000000,512.000000) scale(0.100000,-0.100000)"
fill="#000000" stroke="none">
<path d="M2329 4986 c-2 -3 -47 -8 -99 -11 -104 -8 -121 -10 -195 -25 -27 -6
-62 -11 -77 -12 -16 -1 -28 -5 -28 -10 0 -4 -11 -8 -25 -8 -14 0 -42 -7 -62
-15 -19 -8 -44 -15 -54 -15 -11 0 -45 -13 -76 -30 -31 -16 -60 -30 -65 -30
-11 0 -58 -50 -58 -62 0 -5 -4 -6 -10 -3 -5 3 -10 2 -10 -3 0 -5 -19 -17 -42
-28 -24 -10 -46 -22 -49 -27 -3 -5 -10 -9 -15 -9 -23 -2 -44 -11 -44 -19 0 -5
-5 -9 -11 -9 -15 0 -161 -84 -187 -107 -7 -7 -19 -13 -27 -13 -7 0 -15 -7 -19
-15 -3 -8 -12 -15 -21 -15 -8 0 -15 -4 -15 -9 0 -5 -10 -13 -22 -17 -13 -4
-27 -13 -33 -20 -5 -7 -16 -14 -24 -16 -7 -2 -25 -14 -40 -28 -55 -52 -129
-113 -132 -110 -2 2 -22 -15 -45 -38 -22 -23 -44 -42 -48 -42 -11 0 -66 -57
-66 -68 0 -5 -9 -17 -20 -27 -11 -10 -20 -24 -20 -32 0 -7 -4 -13 -8 -13 -4 0
-16 -15 -26 -32 -20 -35 -75 -89 -116 -114 -15 -9 -31 -28 -38 -43 -7 -15 -20
-36 -30 -47 -9 -10 -26 -38 -37 -61 -11 -24 -23 -43 -27 -43 -5 0 -8 -9 -8
-19 0 -11 -7 -26 -15 -35 -8 -8 -15 -18 -15 -21 0 -4 -15 -39 -34 -78 -35 -76
-73 -175 -102 -267 -9 -30 -21 -64 -25 -75 -4 -11 -17 -63 -29 -115 -12 -52
-23 -104 -26 -115 -16 -63 -19 -145 -19 -470 1 -256 4 -377 14 -420 42 -198
113 -434 163 -545 16 -36 34 -76 40 -90 6 -14 14 -32 19 -40 5 -8 26 -49 46
-90 21 -41 41 -76 46 -78 4 -2 7 -8 7 -14 0 -6 11 -26 25 -44 14 -18 25 -37
25 -41 0 -5 20 -37 45 -71 25 -34 45 -66 45 -72 0 -5 4 -10 9 -10 5 0 22 -20
38 -45 15 -25 31 -45 36 -45 4 0 7 -4 7 -10 0 -11 316 -330 328 -330 4 0 23
-14 42 -31 19 -18 52 -43 73 -57 20 -13 37 -29 37 -33 0 -5 3 -8 8 -8 17 3 31
-2 44 -14 23 -22 98 -67 98 -60 0 5 4 3 8 -3 4 -6 27 -20 52 -33 57 -28 83
-44 91 -54 3 -5 8 -8 10 -7 7 3 44 -12 91 -36 27 -13 57 -24 67 -24 11 0 22
-4 26 -9 3 -5 19 -12 35 -16 17 -4 30 -10 30 -14 0 -4 6 -8 13 -8 6 -1 35 -6
62 -13 28 -7 109 -16 182 -20 73 -5 138 -12 145 -16 7 -4 21 -9 33 -10 11 -1
47 -7 80 -12 86 -14 562 -15 680 -2 128 15 137 16 155 23 21 8 112 21 130 20
8 -1 17 2 20 6 8 11 89 33 100 26 6 -3 10 -1 10 4 0 6 8 11 18 11 10 0 27 7
38 15 10 8 29 15 42 15 12 0 22 5 22 10 0 6 6 10 13 10 16 0 126 57 210 108
37 23 70 42 73 42 2 0 14 9 26 20 12 10 25 17 30 14 4 -3 8 0 8 5 0 6 5 11 10
11 12 0 73 41 78 53 2 4 9 7 15 7 12 0 54 33 109 85 15 14 31 25 35 25 5 0 22
13 38 30 16 16 32 30 36 30 4 0 62 54 129 120 67 67 125 119 127 116 3 -3 17
9 31 25 14 17 36 35 49 40 12 5 23 15 23 24 0 8 4 15 9 15 5 0 13 9 16 20 4
11 10 18 15 15 5 -3 11 4 15 15 4 11 11 18 16 15 5 -4 9 5 9 18 0 14 7 30 15
37 8 7 15 18 15 26 0 7 6 17 13 21 7 4 18 20 24 36 7 15 17 27 23 27 5 0 10 7
10 16 0 20 43 114 52 114 3 0 9 13 13 30 4 16 10 30 15 30 5 0 11 13 15 30 4
16 11 30 16 30 5 0 9 9 9 19 0 11 4 22 9 25 4 3 14 27 21 53 7 27 17 52 21 58
5 5 9 18 9 28 0 10 6 33 14 50 8 18 16 43 19 57 3 14 14 61 25 105 18 73 27
125 52 313 12 92 5 564 -9 647 -20 110 -41 216 -52 260 -5 22 -14 58 -20 80
-5 22 -14 49 -19 60 -14 29 -61 156 -67 183 -3 12 -9 22 -14 22 -5 0 -9 6 -9
13 -1 6 -9 30 -20 52 -11 22 -19 45 -20 52 0 6 -3 13 -8 15 -4 2 -23 35 -42
73 -19 39 -52 97 -72 131 -21 34 -38 66 -38 73 0 6 -4 11 -9 11 -5 0 -13 10
-16 22 -4 11 -17 31 -30 42 -12 12 -25 31 -29 44 -4 12 -12 22 -17 22 -5 0 -9
4 -9 9 0 10 -25 42 -82 104 -21 23 -38 44 -38 48 0 9 -167 179 -175 179 -4 0
-12 6 -19 13 -7 6 -30 27 -50 45 -20 18 -36 37 -36 42 0 6 -8 10 -18 10 -10 0
-25 8 -34 18 -24 25 -36 34 -104 76 -34 21 -70 45 -80 54 -11 9 -41 28 -69 41
-27 14 -52 27 -55 30 -5 6 -33 20 -120 60 -19 9 -36 19 -38 24 -2 4 -12 7 -22
7 -10 0 -31 7 -47 15 -38 20 -86 38 -158 61 -33 10 -62 21 -65 24 -3 3 -16 6
-30 8 -70 8 -100 15 -100 21 0 4 -8 7 -17 8 -70 7 -123 17 -123 23 0 4 -15 7
-32 8 -18 1 -57 6 -87 12 -51 9 -543 15 -552 6z"/>
</g>
</svg>
